<svg
  xmlns="http://www.w3.org/2000/svg"
  viewBox="0 0 64 64"
  width="100"
  height="100"
>
  <!-- Background Circle -->
  <circle cx="32" cy="32" r="30" fill="#f0f4f8" />

  <!-- Open Book Icon -->
  <g fill="none" stroke="#3b82f6" stroke-width="2">
    <path
      d="M12 16h18c4 0 6 3 6 6v20c0 3-2 6-6 6H12V16z"
      fill="#fff"
    />
    <path d="M32 22h20v24H32z" fill="#fff" />
    <line x1="12" y1="16" x2="32" y2="22" />
    <line x1="32" y1="22" x2="52" y2="16" />
    <line x1="12" y1="48" x2="32" y2="54" />
    <line x1="32" y1="54" x2="52" y2="48" />
  </g>

  <!-- Quill Pen -->
  <path
    d="M26 34l4-10 4 10M28 36h4"
    fill="none"
    stroke="#3b82f6"
    stroke-width="2"
    stroke-linecap="round"
  />
  <path
    d="M38 40l-6-2 6-2M28 40l6-2-6-2"
    fill="none"
    stroke="#3b82f6"
    stroke-width="2"
    stroke-linecap="round"
  />
</svg>

